
<global>
amp_veltrack=0
ampeg_release=0.25
</global>

<group>
group_label=Group_0-42
lpc_hicc1=42
lpc_locc1=0

<region>
hikey=a3
hivel=127
lokey=g#3
lovel=1
lpc=LC5oQi9Y2cKG5FZC66yBwYYcnEGKt8zAB+gNwJ/yvsDHKVJBcwJQQOOTR8CtGUy/U4VHwdfaJEFxwg3ATQEzQCatOsCcG07AZ+skQFKcIb9Sa28/jgPKQKG1DMHQpF5A
lpc_rms=-20.34
offset=10729
pitch_keycenter=a3
sample=Alto_growl_PP_A3.opus
</region>

<region>
hikey=a4
hivel=127
lokey=g#4
lovel=1
lpc=AZtpQpSJ68IdVn9CZW+zwJWGDkEbGt7ATqlAv5i+FcEc6bRBRjWOwQZbwkEbK9zBfXDJQG5bGcDxqQ9BVAILwK52FcC7KF1Ar2PRwLKlpkCosMpA4+gswSOdPMDHkeRA
lpc_rms=-19.21
offset=5669
pitch_keycenter=a4
sample=Alto_growl_PP_A4.opus
</region>

<region>
hikey=B5
hivel=127
lokey=g#5
lovel=1
lpc=vDQTQf+0psEdrKZBh9YkwaPNA0CbR0E+07egP/3t1r/kczdAiFC7vwXL3L8+M1ZAgf+1v65Xob4Kg7E/9sCDv7vOXD8uaoLAzSMNQZAR8cBUGM8/8hkuQMBYKsDHym8/
lpc_rms=-22.79
offset=6295
pitch_keycenter=A5
sample=Alto_growl_PP_A5.opus
</region>

<region>
hikey=b3
hivel=127
lokey=a#3
lovel=1
lpc=8GUmQsqJpMI6QURCNohswSzeN0GesGfAaPa3wLUKmD82DNFATLGQP1Y5gz4UEhHBVF8Qv827o0AlF6k/nkPnvweFNr9Y9c+/HeC2QGDhqL+dyyfA+3BUQAZRiMAqWApA
lpc_rms=-24.62
offset=5559
pitch_keycenter=b3
sample=Alto_growl_PP_B3.opus
</region>

<region>
hikey=b4
hivel=127
lokey=a#4
lovel=1
lpc=pzjRQRnDWsLKB/lBEhkJPjybBz+XC2o+tkqjwLpqtb8i7BhB3UzjwBLitUD5wLfAlrmhwKRbGUHpQUDARLjgP84hkb/ASkLAM36HQCZ3i73Ec76/OswBQIvmrsAsmIFA
lpc_rms=-23.88
offset=9892
pitch_keycenter=b4
sample=Alto_growl_PP_B4.opus
</region>

<region>
hivel=127
key=c#3
lovel=1
lpc=Sf+eQgbvCMMt+l5CDCo/wS8CMEF4loVAra/MPiJBecEH8IVBOKxhQdaE5sF8RItBwmZXwQkmBEGEVAy+HOgWwN7OhEB+YeS/8vgbP/bxej8qqBXAi4VpQE0skMBTXKs/
lpc_rms=-19.06
offset=16502
sample=Alto_growl_PP_C#3.opus
</region>

<region>
hikey=c#4
hivel=127
lokey=c4
lovel=1
lpc=Z/xDQqrlusJ0XjdCVitFwU/MbkHRj9JADYg1wUpeA8GiC4lBw+ggwRiyD0FDtjLBtojNv4M4G0HABUW/P36rwNz7CUDzgwvBhB0pQWCrgUAMsNXAOMjCQMoS3cArJfw/
lpc_rms=-20.09
offset=2826
pitch_keycenter=c#4
sample=Alto_growl_PP_C#4.opus
</region>

<region>
hikey=c#5
hivel=127
lokey=c5
lovel=1
lpc=eECRQfKsGsKrMvRBGoZEwaj+70DKTq7AQ8o9Pzqzzb+fStlAE/bjwHQbpEAAGNq/A0OOwKPmpUDI/y6/idukv7mzHkAeRMi/LZwhPhBIDD9S2vW/018/QKiR3L+6snE/
lpc_rms=-23.37
offset=5179
pitch_keycenter=c#5
sample=Alto_growl_PP_C#5.opus
</region>

<region>
hikey=d#3
hivel=127
lokey=d3
lovel=1
lpc=tOcpQhuilMIdNAFCS5wWwbR4PUEy3Y/Ap8wFQAKugcAVH1RA8Yf7QKqNKMFOAYtAd932vzcriz7adQzAcsG4QEDhdsC8HoA/VwWZP1accsCHNh1A8hAFQIwXSMCAZHs/
lpc_rms=-22.23
offset=11268
pitch_keycenter=d#3
sample=Alto_growl_PP_D#3.opus
</region>

<region>
hikey=d#4
hivel=127
lokey=d4
lovel=1
lpc=KznVQS0bS8JZveNBbtkPwY4Mv0C5tlRACeLowNjISj9bRiJAxTzKvl4so0D6qOLA65OAQLjf/L8TRsm/UTMXP9qRgj74koA/s9g4PyHKmr8SbdQ+mq/Pv/922j9tewo9
lpc_rms=-24.74
offset=3511
pitch_keycenter=d#4
sample=Alto_growl_PP_D#4.opus
</region>

<region>
hikey=d#5
hivel=127
lokey=d5
lovel=1
lpc=FSs/QSizyMHbCsZBCtFkwcoa6EB0AXDAU/fKPojvbb/5mUtAuvhsv6R+xb/huipAHeG6v9W2Cz8QMn0/SF7gPnpQKb8NTva/7B3hP5RsBUBFx7TAy4ABQco85cDN0IVA
lpc_rms=-24.85
offset=5084
pitch_keycenter=d#5
sample=Alto_growl_PP_D#5.opus
</region>

<region>
hikey=f3
hivel=127
lokey=e3
lovel=1
lpc=3RSmQUpnCsKrx3NBwWeEwCQrzUCklaC/k5iCwF1TMcCAYLJA/XFJQJ4GTMBRv0LA6X3OP5jOgD9qo8I/L3pCwM91zD/d2/S/QlAgQFmhB7+h3xm/X0ooP1DZVr4Nhoo+
lpc_rms=-26.72
offset=12588
pitch_keycenter=f3
sample=Alto_growl_PP_F3.opus
</region>

<region>
hikey=f4
hivel=127
lokey=e4
lovel=1
lpc=6U14Qmp6BsP41sBCwjIRwq+KsUEauRPBSoI1wCGRlL92QA1BfHEdQAua57/x7GvA8zNbwaZ0K0Hj3OU+N2h7QMmzbMAwfz/Aqt6zQETBKr/ZcUlApLMNvw7lRcHomBZB
lpc_rms=-20.73
offset=3049
pitch_keycenter=f4
sample=Alto_growl_PP_F4.opus
</region>

<region>
hikey=f5
hivel=127
lokey=e5
lovel=1
lpc=YsEUQZHoicGrPIBBPCgYwUgHs0DnN0vAPwuqPwoVBMCd069AkQIdwFtEKMBecYdA3Xy6v4tXzz774H4/QP8TwBLmEkCJ01E+BHD4vjgaVr/C2dk/itjmvm57BT/X7zo/
lpc_rms=-28.54
offset=1491
pitch_keycenter=f5
sample=Alto_growl_PP_F5.opus
</region>

<region>
hikey=g3
hivel=127
lokey=f#3
lovel=1
lpc=fAAbQiv6lMIRmRdCmk8AwX3pKEFNFq0/ymJOwQMYs7822DNBG+mTQOe7D8E0RqFAHh8twW9jGkFnUxm9Gtovv8+Uzr2PYqTA9QCVQHOeTj5S2o6/tSM2QLep58Ac8ItA
lpc_rms=-21.80
offset=8546
pitch_keycenter=g3
sample=Alto_growl_PP_G3.opus
</region>

<region>
hikey=g4
hivel=127
lokey=f#4
lovel=1
lpc=8OlWQrmC5MIIw49CxRBMwfkB6kAz8w3AEDc/wKZHAcHloexAuOohQcumBsFboKtAeV6NwZW75EAvQeZAcN4PwAoB7j8wU/6/BcStwKbwF0E6mKU/FFRpwOf9LME4VRZB
lpc_rms=-18.98
offset=9155
pitch_keycenter=g4
sample=Alto_growl_PP_G4.opus
</region>

<region>
hikey=g5
hivel=127
lokey=f#5
lovel=1
lpc=P//pQf1xWML1cC5CrVmOwdUT20DRWkm+dRGIPthlA8A+Pw5B7i2wwL5qe795mW5AdX7cvqOOpD/tgE1AuXE0wC2KEECZ/OW/sVOZQLu6gMA1YZhAuTtnP5j//r/ABS5A
lpc_rms=-18.80
offset=15173
pitch_keycenter=g5
sample=Alto_growl_PP_G5.opus
</region>
</group>

<group>
group_label=Group_43-84
lpc_hicc1=84
lpc_locc1=43

<region>
hikey=a3
hivel=127
lokey=g#3
lovel=1
lpc=sfzrQf8kjMK8BWFC4HKiwfmpQ0FJHyrBe12nQJYbQ8EdpYhBpuHev/PjLMGcRvVA3bCXwPtCrEABB6m/zFS+v3ij9L8+b5a8rQckQNto1D6LNTm9lCRuPk3tE8BpyKY/
lpc_rms=-14.28
offset=6085
pitch_keycenter=a3
sample=Alto_growl_MF_A3.opus
</region>

<region>
hikey=a4
hivel=127
lokey=g#4
lovel=1
lpc=s8+TQdXsO8KxQFFCRUgewm9w0EG5KpfBxJqPQRFetsFc0+tBsF3BwcxhKkGpYCg/4o03wL98IL/DIwlABUc7wKjn7z5VgjpAyivNv7VrSr0kxX8+puRSv1xCED+MVio+
lpc_rms=-9.88
offset=4321
pitch_keycenter=a4
sample=Alto_growl_MF_A4.opus
</region>

<region>
hikey=B5
hivel=127
lokey=g#5
lovel=1
lpc=IXFjQe0ppcG5mGVBdaubwKblmEBOlaLAH9MnQEg85z/sITRAFDs6wO2ZoD6TK4NAe3UIwLHulr/kDh1A/D8MQFEfDsDtdKs/inZ8QK4JJ8AFuWQ/BzDiv//tskDQKUPA
lpc_rms=-15.77
offset=78
pitch_keycenter=A5
sample=Alto_growl_MF_A5.opus
</region>

<region>
hikey=b3
hivel=127
lokey=a#3
lovel=1
lpc=ZJqhQVYOOsKMYBtCBFqGwbNoJkFeMRvBtIG5QPNG68C9LAFBym4dQHjCI8Eog4FAWVanP0O7az97wAHA0jZeP3MBVz9jkWHARydTQD44uL+6VLE9BUZoQIGqYMBu1is/
lpc_rms=-17.97
offset=4794
pitch_keycenter=b3
sample=Alto_growl_MF_B3.opus
</region>

<region>
hikey=b4
hivel=127
lokey=a#4
lovel=1
lpc=vtMvQX+u38F54wJCKijUwSwTkkH5DybBeVT1QALZPMH/2HNB2v0nwW/G1j+PrYFAi7ivwIe6kUBaUsm/r88MwGZisD8kWiRAT+8lwEzn0T/qfeC/AgpBPxl64T4C38i9
lpc_rms=-15.66
offset=7187
pitch_keycenter=b4
sample=Alto_growl_MF_B4.opus
</region>

<region>
hivel=127
key=c#3
lovel=1
lpc=CqoLQn11tMJ35qpCr1cUwjY2HEH2NLvAvW4zQVSd2MHvnwtC0Kw1wYhkj8EI1JtB98vHwD+iIj96Ila/kriaPyVakMDWgi5AnvqiQAwuhMDZ5RC/Sq0BQP1E879Mv+o+
lpc_rms=-12.62
offset=3570
sample=Alto_growl_MF_C#3.opus
</region>

<region>
hikey=c#4
hivel=127
lokey=c4
lovel=1
lpc=ZPCXQSlLNsJ4VDNCaPnTwQ3bREGH49PACySRQE/w8MDZ9kNBmivLwCYmFcDfbyJAzCB2v08cIUBawDTAQyKqPwlDGcDcJBlAE0nRv/rY8T8AQvO+1V98v4meY0AcOibA
lpc_rms=-14.54
offset=4434
pitch_keycenter=c#4
sample=Alto_growl_MF_C#4.opus
</region>

<region>
hikey=c#5
hivel=127
lokey=c5
lovel=1
lpc=0w6ZQMY07sCyRL9AFEhzwPMGHEBX4x2/dUcRvxkAtr8wvR9Ardk6v8/WF78lVYU/v+2Zv4qmHECOqN+/LBOpvgs9jD6tdoQ+xL0uP84xK7/wBle++qq8PYhrsz+/zey+
lpc_rms=-15.85
offset=2330
pitch_keycenter=c#5
sample=Alto_growl_MF_C#5.opus
</region>

<region>
hikey=d#3
hivel=127
lokey=d3
lovel=1
lpc=zw3HQe15gsKjK4RC59wVwtXPnEFbS/nABp2gwP1VqkApPpo/HTalQMbKesGJWnZBFuk/wZ2rLEF07+XAGb5EQD/1DcBeck+/6AOZQB2NM8Bvicw/2Svuv9Bojb7PJD4/
lpc_rms=-14.10
offset=4335
pitch_keycenter=d#3
sample=Alto_growl_MF_D#3.opus
</region>

<region>
hikey=d#4
hivel=127
lokey=d4
lovel=1
lpc=hWRKQX0x8sHIxPlBfpmtwdC9X0HnxfnAofI6QLf9qMDvNA9BmFyYwEsebb/2bzVA9uNywIJwlkA28CjAU99RPyzyxL9g2yo+ZrjEP8w2sL9IrTw/vftLv8qqcj/PZ8a9
lpc_rms=-18.17
offset=4333
pitch_keycenter=d#4
sample=Alto_growl_MF_D#4.opus
</region>

<region>
hikey=d#5
hivel=127
lokey=d5
lovel=1
lpc=oJ90QFwl4sAdeNhAWE6JwK9dKkBUca6//WDBPYzuqb6tp+g/2/IUwOpFzz8bque+iAbHvfJRjz9HP+i/vgrcPxbUDL9iBay+5ME7P999Ib8yKgQ/cUeoPUSbrb5TyP4+
lpc_rms=-16.70
offset=4080
pitch_keycenter=d#5
sample=Alto_growl_MF_D#5.opus
</region>

<region>
hikey=f3
hivel=127
lokey=e3
lovel=1
lpc=JJ6hQUSZQsLi3SZC1w2BwepuA0GeXbzAh9pMv5QCgMChkTZBcpsBwKLkBsHruKhA8JXovz7CY0CSgwvAedKtvy08mD/YdAXAB6BnQJ/yzL/kDWk/4DFFPhFR5r8+wYs/
lpc_rms=-18.52
offset=6637
pitch_keycenter=f3
sample=Alto_growl_MF_F3.opus
</region>

<region>
hikey=f4
hivel=127
lokey=e4
lovel=1
lpc=CEijQfjFRMKqA0FCpp3swc2ziEFEYxbBc9qCQJNqCsGpTHdBvXr1wOoqEsAMgf8/pi6hvwtWE0DcNBe+ODdvwNqRkj/guExAv5+Hv0Rbp70rUbY/TqTMwKIy00BTFOO/
lpc_rms=-12.59
offset=3777
pitch_keycenter=f4
sample=Alto_growl_MF_F4.opus
</region>

<region>
hikey=f5
hivel=127
lokey=e5
lovel=1
lpc=+qjXQM5iHcG6axFB7FKwwFODZ0CApgU/zHAQwAcair1HIG5AtalrwFNN+D/uAQ+/e+qvv0bvYkCD8zXA49LOP46tEz8t2849b5GRP0yVkr77ZBi+rtHmPzA7nb8IIFo/
lpc_rms=-13.90
offset=2672
pitch_keycenter=f5
sample=Alto_growl_MF_F5.opus
</region>

<region>
hikey=g3
hivel=127
lokey=f#3
lovel=1
lpc=ZuUiQnmxtcLr53xCXO3DwT1I6kFIWa7BBowtQYNPxcFVqatBblFXQBwR2cBepRo+LJWiv5TkjT7H/SNALUtpP7Vr48DLnnVA1ifvP4v6csBzE/ZA4h6swFMzB78uAEQ/
lpc_rms=-13.21
offset=5851
pitch_keycenter=g3
sample=Alto_growl_MF_G3.opus
</region>

<region>
hikey=g4
hivel=127
lokey=f#4
lovel=1
lpc=xijbQQkwlMJCeqxC69Z8whEvIEKnFwfCibQTQj58H8KgLRRCp2aUwQ+v4sADNo1Bj2IXwSNsB76//sk+H2eZQGhQGcHwCyRBneVGwIDMp8AvQOhAksOQwE/QhT6KE5A/
lpc_rms=-10.80
offset=3221
pitch_keycenter=g4
sample=Alto_growl_MF_G4.opus
</region>

<region>
hikey=g5
hivel=127
lokey=f#5
lovel=1
lpc=L545QSM7m8G+04VBRvC1wG/JBD+loeQ/SRxcvy25sj9bHzNA0ryBwEP9SUCNVuc/fDsjwNZ9L0DhCCq/R5kMQGOsib9p0jo/0F34P4CiLb/gRfe/vGf7QASvAME5JLhA
lpc_rms=-15.04
offset=5024
pitch_keycenter=g5
sample=Alto_growl_MF_G5.opus
</region>
</group>

<group>
group_label=Group_85-127
lpc_hicc1=127
lpc_locc1=85

<region>
hikey=a3
hivel=127
lokey=g#3
lovel=1
lpc=Zp93QaPlH8LwIzZCv7sGwhaOikFUSlDAxOgKwP3fosBplHlBhQZ7wbTE4EDBfsM/HdOuwFsjr0A6M/i/1PY/wFJOUkAd6E6/EpVavstUW77auhtAj8uFwNard0D6cdO/
lpc_rms=-13.35
offset=5214
pitch_keycenter=a3
sample=Alto_growl_FF_A3.opus
</region>

<region>
hikey=a4
hivel=127
lokey=g#4
lovel=1
lpc=jeRPQfFW88ETkftBMlu5wR7abUECABXBWM4BQU9fP8GF2oBBA8ZOwaFx5UAcv+e/wRvyv0ZgjkCbmJ7ACQ8MQIpgy79JCjRAbLv9v0CwAUBHWo3AwoeUQGtoC8DmOAY/
lpc_rms=-6.78
offset=4217
pitch_keycenter=a4
sample=Alto_growl_FF_A4.opus
</region>

<region>
hikey=B5
hivel=127
lokey=g#5
lovel=1
lpc=px+qPwbZTr4u1SE/QukKv3ApB72Wxpy+PztCPkkwKr7ykt49Ddn7vbxyL73HL9S9S2nhvGZReLwWzQy+72TRPPBKj77a3Pg7s+F0vc5YhD32PUM9g1uQvRNUCLyRdN+9
lpc_rms=-63.99
pitch_keycenter=A5
sample=Alto_growl_FF_A5.opus
</region>

<region>
hikey=b3
hivel=127
lokey=a#3
lovel=1
lpc=Jt4PQSXTosGmHqZBLhlbwRbCx0D6GRTAMjYsQB9z18DQKhNBHAHgwIMJVEBNnua/9D0qQIogfcDN3m9A1MsTwOsooT6m0ak/AtgQwEigYD8/tglA9YQfwLqUqD9if5K+
lpc_rms=-16.21
offset=7066
pitch_keycenter=b3
sample=Alto_growl_FF_B3.opus
</region>

<region>
hikey=b4
hivel=127
lokey=a#4
lovel=1
lpc=RtTDQG1yUcGPiU5BTmUcwUB82kDFeDPAiMhCP4sJ+79PLXNAEE1WwMKDzj8RZxy/rE/dvIXnpj9lsb6/3X9yvplXIz8SScY+uumcPniwbLyUXsa/lonVP2YEZL8VBAc/
lpc_rms=-10.64
offset=6186
pitch_keycenter=b4
sample=Alto_growl_FF_B4.opus
</region>

<region>
hivel=127
key=c#3
lovel=1
lpc=GuU8Qfgz1sG7hMtBIumBwYi78UBufSS+/K4RwANwWcBd+zVBHnI9wV3290CtMnvAa1X1vrkOhUB3iYnAkhKRPRWnNkAMG+K/WReDP0OQuT24kfm/yBMHQC0FUr4yGja/
lpc_rms=-9.76
offset=10999
sample=Alto_growl_FF_C#3.opus
</region>

<region>
hikey=c#4
hivel=127
lokey=c4
lovel=1
lpc=4Vw6QTnL08EnAdhBSi+fwbVpRUEzi93A6/GmQLrmBsHlDkZBHTwiwUrZq0AGiVDALJzgP9Kvmj96fgrAebixvv6/uj9mfg3Ac4lHQG37PcDNsxRADCKuv82KH0AV39m/
lpc_rms=-13.03
offset=2801
pitch_keycenter=c#4
sample=Alto_growl_FF_C#4.opus
</region>

<region>
hikey=c#5
hivel=127
lokey=c5
lovel=1
lpc=lz9/QGCFycCUq7tAHdObwEEAgUD09yTAhF2HP+0Lmb95ANw/t/2lv3FoSD9wU0+/QwlMPy/5NT9Bbsq/k1WYP2r/RL8/OUU+InaUPySewr+1PaI/y2sxv7qQGz9YTg0+
lpc_rms=-11.36
offset=2937
pitch_keycenter=c#5
sample=Alto_growl_FF_C#5.opus
</region>

<region>
hikey=d#3
hivel=127
lokey=d3
lovel=1
lpc=NldYQfoxCMLn4hRCx6vhwYcSmUG28zbBIO0KQaOicMF+tLxBM2+qwX2/QkEKs5nAaUCcv0Xma0CqGKy/g+b8v+/Xoz+qIOE/WOIbwHDugEAE8JvA1YUSQLvs8L4Ccro9
lpc_rms=-11.58
offset=9789
pitch_keycenter=d#3
sample=Alto_growl_FF_D#3.opus
</region>

<region>
hikey=d#4
hivel=127
lokey=d4
lovel=1
lpc=UIvPQNTAX8H7+1pBL/UowRTNCUG5ENLAe4CbQLPu2sCgpxdBCBsDwT5SvED3tnjAMLaBP5qsdT8/Nou+XFh3v//nvj+9MBfAWxMKQMboCb8V95C+0fN+vjVdHT+2/Ry+
lpc_rms=-15.78
offset=4920
pitch_keycenter=d#4
sample=Alto_growl_FF_D#4.opus
</region>

<region>
hikey=d#5
hivel=127
lokey=d5
lovel=1
lpc=2T1gQOW8ycCABMFAUxeIwMTRP0BJjti/BZ1APyE917/DgVVAfSpDwHt02j+LFAG/AjrAO7jEWj+zlpO/Ry2CP0XYYb5m6Eq+Nd8TPhFlX74mCgg+s6cJP5dED7+BAfQ+
lpc_rms=-12.68
offset=5431
pitch_keycenter=d#5
sample=Alto_growl_FF_D#5.opus
</region>

<region>
hikey=f3
hivel=127
lokey=e3
lovel=1
lpc=cEhMQdn1BcIiJyVClAAJwio2qkGlnifBgpmXQNmTzcCgoTtBzdocwRVtTj+GPA5BGb1twUsZbEGPkxzB9U8sQLYIdz/i3rC/qIyXPwbIRj/ikZ6/OjzGvliqrz81Bhq/
lpc_rms=-15.16
offset=5005
pitch_keycenter=f3
sample=Alto_growl_FF_F3.opus
</region>

<region>
hikey=f4
hivel=127
lokey=e4
lovel=1
lpc=Shl8QRZ8GsKO3CxChWUAwtZAiUHVe7XARQkAv/TF5b939v9Aw+zDwKlwMb7evohAwHzJwGjrs0ABTTTAEwXxv8QbdUCMkynA0keIP+GpBUBtqC/AdJtfPkMIAz9NZt4+
lpc_rms=-12.16
offset=6376
pitch_keycenter=f4
sample=Alto_growl_FF_F4.opus
</region>

<region>
hikey=f5
hivel=127
lokey=e5
lovel=1
lpc=CMPDQLkXC8Fl6QZBZTqOwAoaT0AqEq49De+Fv0gZnr7mmw1AyimRvz/5oL9wGgdACef1v1el7D8Kpje/YD+GPhoDPz+bqIs/KZo5PeMxNz6Svm8/SaIaPwe6+j0Fx1Q+
lpc_rms=-11.10
offset=2057
pitch_keycenter=f5
sample=Alto_growl_FF_F5.opus
</region>

<region>
hikey=g3
hivel=127
lokey=f#3
lovel=1
lpc=2KmWQffDO8I0sFZC0qYxwl6N+0FHhanBHD2OQVEZxcFb9gBCpp3UweXYW0FiQJW/qVzfwHFrCkH36aLA3uwyPcXoJcCfkCRBT9FKwbbLQ0HfOBDB3epBQBoyGD+uYU6/
lpc_rms=-9.45
offset=4435
pitch_keycenter=g3
sample=Alto_growl_FF_G3.opus
</region>

<region>
hikey=g4
hivel=127
lokey=f#4
lovel=1
lpc=O7x0QaCjF8KRECFCeJPiwXcEgUGamcbACdI0QIzWJsGHR55B36GJwRaG5ECcG0BAgLwiwbgrHUGDkIHASYgFwK+fYkCEh2W/nuI5PyeBDL8z2fK+NN71PkQjFb9frMU+
lpc_rms=-8.17
offset=7436
pitch_keycenter=g4
sample=Alto_growl_FF_G4.opus
</region>

<region>
hikey=g5
hivel=127
lokey=f#5
lovel=1
lpc=sw0EQc8KRMGfBxFBcKUDwPRESL8IYuM/i1ftv218XUB6ak0/5egewG5QJz9kTQFA1qDqvhU7jb50uDo/mVq9P+5KsT5pxpC/xqfhPymflL+EPDc8nZNjQOhWNsApgRlA
lpc_rms=-14.23
offset=8685
pitch_keycenter=g5
sample=Alto_growl_FF_G5.opus
</region>
</group>